<svg xmlns="http://www.w3.org/2000/svg" viewBox="0 0 88.52 113.69"><defs><style>.cls-1,.cls-2{fill:#6c9bd2;}.cls-2{stroke:#6c9bd2;stroke-miterlimit:10;}</style></defs><g id="レイヤー_2" data-name="レイヤー 2"><g id="レイヤー_1-2" data-name="レイヤー 1"><path class="cls-1" d="M28.16,8.55c7.22,0,14,1.68,21.07,3.46s14.57,3.63,22.52,3.63a47.38,47.38,0,0,0,12.77-1.7,1.35,1.35,0,0,1,1,.11v86.6a1,1,0,0,1-.2.09A41.56,41.56,0,0,1,71.75,103c-7.21,0-13.94-1.68-21.07-3.46s-14.57-3.64-22.52-3.64a47.5,47.5,0,0,0-12.77,1.71,1.14,1.14,0,0,1-.37,0,1.22,1.22,0,0,1-.62-.16V10.87a.85.85,0,0,1,.19-.09A41.65,41.65,0,0,1,28.16,8.55m0-3A44.52,44.52,0,0,0,13.63,7.94a3,3,0,0,0-2.23,2.69V97.71c0,1.66,1.7,2.92,3.62,2.92a4.29,4.29,0,0,0,1.17-.16,44.87,44.87,0,0,1,12-1.6c15.17,0,28.42,7.1,43.59,7.1a44.52,44.52,0,0,0,14.53-2.39,3,3,0,0,0,2.24-2.69V13.81c0-1.66-1.7-2.92-3.63-2.92a4.82,4.82,0,0,0-1.17.15,44.36,44.36,0,0,1-12,1.6c-15.16,0-28.42-7.09-43.59-7.09Z"/><path class="cls-2" d="M17.66,100.61c0,.45,1.65.82,3.69.82s3.69-.37,3.69-.82v11.76c0,.45-1.65.82-3.69.82s-3.69-.37-3.69-.82Z"/><ellipse class="cls-2" cx="21.35" cy="12.84" rx="19.95" ry="6.42"/><path class="cls-2" d="M1.41,11.84c0,3.55,8.86,6.49,19.88,6.56s20-2.73,20-6.28l-.91,91.36c0,3.55-9,6.36-20,6.28S.46,106.74.5,103.19Z"/><ellipse class="cls-2" cx="20.9" cy="1.22" rx="3.69" ry="0.72"/><path class="cls-2" d="M17.21,1.22c0,.41,1.65.73,3.69.73s3.69-.32,3.69-.73V11.53c0,.4-1.65.73-3.69.73s-3.69-.33-3.69-.73Z"/><path class="cls-2" d="M75.63,28.84c.38.09.56.2.56.34s-.18.45-.56.71a40.89,40.89,0,0,1-11.46,4.59v4.41c0,.62-.34.89-1,.78-.33-.06-.5-.31-.5-.72V34.86a17.7,17.7,0,0,0-5.42,1.68c-.73.41-1.09.89-1.09,1.45a2.18,2.18,0,0,0,.61,1.44c.73.85,2.43,1.72,5.16,2.3a17,17,0,0,0,7,.19,6.23,6.23,0,0,1,1.45-.39c1-.08,1.46.19,1.46.89,0,.27-.27.49-.8.62a18.68,18.68,0,0,1-8.47,0c-3.24-.63-5.34-1.8-6.39-3a3.36,3.36,0,0,1-1-2.08,2.43,2.43,0,0,1,1.47-2.17,25.65,25.65,0,0,1,6-1.92,3.61,3.61,0,0,0-.87-2.59,3.24,3.24,0,0,0-1.6-.79c-2.06-.51-4.49.22-7.33,2.35a.94.94,0,0,1-.73.09c-.4-.13-.61-.5-.61-1.13s.17-1,.49-1A4.53,4.53,0,0,0,54,30a17.11,17.11,0,0,0,4.75-4.33c-.65-.11-1.61-.35-2.81-.62-.63-.14-1.21-.27-1.7-.42a4.31,4.31,0,0,1-1.34-1.15A2.35,2.35,0,0,1,52.13,22c.16-.22.33-.14.49.26A4.8,4.8,0,0,0,55.42,24a24.26,24.26,0,0,0,3.78.9,5.26,5.26,0,0,0,1.11-2.23c.14-.92-.47-1.7-1.84-2.27-.56-.23-.54-.46-.13-.45,1.25,0,2.95,1,4.45,2.22.41.36.37.67-.13.92a9.07,9.07,0,0,0-2.1,2.16,14.29,14.29,0,0,0,4.49-.22,2.49,2.49,0,0,1,1-.21,1.75,1.75,0,0,1,.89.48.54.54,0,0,1,.26.54c0,.21-.26.34-.77.37-2,.14-5.26-.65-6.39-.25-.8.29-2.17,2.22-3.3,3.27q-.37.42.24.39a8.94,8.94,0,0,1,3.31.08,5.26,5.26,0,0,1,2.6,1.3,4.09,4.09,0,0,1,1.26,2.51,30.1,30.1,0,0,0,8.31-3.39c.45-.22.54-.42.27-.58a10.56,10.56,0,0,0-1.87-.35c-.52-.07-.5-.29,0-.42A14.59,14.59,0,0,1,75.63,28.84Z"/><path class="cls-2" d="M58.59,54.19c-1.88,3.19-3.78,6.28-5.73,9.38a10.57,10.57,0,0,0-1.09,1.76c-.25.48-.53.68-.86.58s-.44-.3-.61-.7a2.16,2.16,0,0,1-.12-.87A1.45,1.45,0,0,1,50.91,63a6.13,6.13,0,0,0,1.71-1.79c1.78-2.46,3.36-4.82,4.75-7.14a27.88,27.88,0,0,0-4.63-.37,1.56,1.56,0,0,1-1.34-.52,3.14,3.14,0,0,1-1.22-2.56c0-.16.2-.15.37.11a3,3,0,0,0,2,1.74,46.87,46.87,0,0,0,5.23,1c.41-.65.86-1.36,1.23-2.07a2,2,0,0,0-.13-2.24,6.42,6.42,0,0,0-1.95-1.29c-.31-.17-.26-.44,0-.42a5,5,0,0,1,1.71.6,8.34,8.34,0,0,1,2.34,1.75c.74.8.69,1.18-.13,1.13A29.09,29.09,0,0,1,59,53.67c1.14.17,1.92.28,2.34.37a4.29,4.29,0,0,1,2.36,1.2,6.09,6.09,0,0,1,1.14,4c0,5.38-1.58,8.61-4.61,9.17-.83.15-1.23-.11-1.23-.74a1.56,1.56,0,0,0-.49-1.18L56,64.24q-.26-.49.24-.24c.89.69,1.83,1.38,2.81,2.07A1.6,1.6,0,0,0,61.3,66a6.34,6.34,0,0,0,1.61-3,17.77,17.77,0,0,0,.63-4.5,6,6,0,0,0-.38-2.58,2.62,2.62,0,0,0-1.86-1.22C60.39,54.47,59.49,54.3,58.59,54.19Zm11.1.36c1.48.41,3.1,1,4.84,1.53,2.29.77,3.66,1.83,3.94,3.72A2.33,2.33,0,0,1,78,61.56c-.58.81-1.18,1-1.71.56a2.07,2.07,0,0,0-2.08-.3,15.66,15.66,0,0,1-3.9.86c-.49,0-.53-.27-.14-.41,1.13-.39,2.94-.68,4.59-1.34.64-.25.93-.56.83-.88a4.88,4.88,0,0,0-2.06-2.89,17.65,17.65,0,0,0-4.15-2.28C69,54.62,69.07,54.51,69.69,54.55Z"/><path class="cls-2" d="M56.76,80.39c0-1.11,0-2.26.12-3.42S56,75,54.69,74.41c-.47-.22-.49-.48-.12-.46a5.87,5.87,0,0,1,1.33.32A8.09,8.09,0,0,1,59,76.21a.58.58,0,0,1,0,.94,2.69,2.69,0,0,0-.49,1.12,8.19,8.19,0,0,0-.25,2.24v9.54A4.5,4.5,0,0,0,59,92.87a6.07,6.07,0,0,0,3.7,1.92,10.38,10.38,0,0,0,6.5-.7,26,26,0,0,0,7.17-5.34c.38-.27.52-.26.43.06a22.74,22.74,0,0,1-7.34,6.43,10.74,10.74,0,0,1-7,.76A7.43,7.43,0,0,1,58,93.44a5.69,5.69,0,0,1-1.22-3.72Z"/></g></g></svg>