<svg xmlns="http://www.w3.org/2000/svg" viewBox="0 0 373.99 72.33"><defs><style>.cls-1,.cls-2{stroke:#000;stroke-miterlimit:10;stroke-width:1.5px;}.cls-2,.cls-3{fill:#ddaf29;}</style></defs><g id="レイヤー_2" data-name="レイヤー 2"><g id="レイヤー_10" data-name="レイヤー 10"><path d="M137.66,32.49c5.3,0,9.61,3.83,9.61,8.58v19.5a5.35,5.35,0,0,1-5.62,5H113.84a4.25,4.25,0,0,1-4.46-4V55.27h3.25v4.49a3.48,3.48,0,0,0,3.62,3.29c3.81.05,9.51.14,14.59.18,4.81,0,8.73-3.43,8.75-7.74,0-5.52.05-12.42,0-15.11,0-2.94-2.71-5.31-6-5.31l-15.27,0c-4.95,0-8.94-3.62-8.92-8l0-18.65a4.89,4.89,0,0,1,5.09-4.61l27.82-.21a4.69,4.69,0,0,1,5,4.41v5.66H143.6v-3.4a4.29,4.29,0,0,0-4.5-4L121.6,6a4.13,4.13,0,0,0-4.36,3.85l-.13,17.91a4.31,4.31,0,0,0,1,2.91,6.19,6.19,0,0,0,5,1.84Z"/><path d="M188.1,65a.62.62,0,0,1-.65.57h-21a1,1,0,0,1-1-1V27.37h-7.8a1,1,0,1,1,0-2h7.8v-10h8.54v10h14.22a1,1,0,1,1,0,2H173.94V63.6h13.37a.74.74,0,0,1,.79.69V65Z"/><path d="M244.14,25.63l7.69,0v8a21.09,21.09,0,0,1,6.63-6,16.27,16.27,0,0,1,7.92-2c2.9,0,7.22.67,9.47,2.15a15.78,15.78,0,0,1,5.31,5.72c1.92,3.48,1.92,6.1,1.92,12.09v20l-7.4-.07V46.63c0-4.48,0-7.34-.07-8.87-.18-2.71-.29-3.82-2.18-6.31-2.81-3.73-5.17-3.67-7.81-3.67-3,0-7,2.09-9.34,4.16-1.69,1.52-4.08,4.85-4.11,8.47,0,2-.34,5.75-.34,10.88V65.57h-7.68V25.63Z"/><path d="M291.54,65.53V60.18l26.64-32.52L292,27.46a.76.76,0,0,1-.78-.71h0a1.1,1.1,0,0,1,1.15-1h32.24v6L298.74,63.17l25.6,0a1.21,1.21,0,0,1,1.27,1.14v.15a1.09,1.09,0,0,1-1.13,1Z"/><rect y="70.65" width="373.99" height="1.68"/><path class="cls-1" d="M25.18,65.63H6.53a2.26,2.26,0,0,1-2.26-2.26V5.4A2.26,2.26,0,0,1,6.53,3.14H25.18A2.26,2.26,0,0,1,27.43,5.4v58A2.25,2.25,0,0,1,25.18,65.63Z"/><path class="cls-1" d="M93.87,61.24,75.84,66a2.25,2.25,0,0,1-2.76-1.6l-14.81-56a2.26,2.26,0,0,1,1.6-2.76l18-4.76a2.25,2.25,0,0,1,2.76,1.6L95.48,58.48A2.25,2.25,0,0,1,93.87,61.24Z"/><path class="cls-2" d="M52.14,65.23H33.49A2.26,2.26,0,0,1,31.23,63V5.8a2.26,2.26,0,0,1,2.26-2.26H52.14A2.26,2.26,0,0,1,54.4,5.8V63A2.26,2.26,0,0,1,52.14,65.23Z"/><polygon class="cls-3" points="203.58 32.21 208.9 26.98 217.7 26.98 227.32 33.44 227.32 55.34 223.84 55.34 218.96 62.66 211.39 63.81 204.9 62.66 200.51 59.43 200.51 36 203.58 32.21"/><path d="M224.86,65.37V59.09c0-3-1.74-.55-2.74.81h0c-2.85,3.12-6.89,5.47-11.25,5.47h-1.68c-7,0-11.56-3.45-11.56-11.06V39.16c0-8.81,5.11-13.53,14.58-13.53a26.18,26.18,0,0,1,12.65,3V26.08l7.66-.13V65.61Zm0-31.81c-1.59-3.59-6.89-6.18-12.17-6.18-5.95,0-7.75,5.24-7.79,11.22V54.39c-.06,5.34.72,8.67,5.25,8.67h0c4.7,0,8.94-1.84,10.91-5.46.55-1,1.24-2,1.68-3.11l.93-2.3a16,16,0,0,0,1.19-6V33.56Z"/><polygon class="cls-3" points="339.19 31.63 344.51 26.41 353.31 26.41 362.93 32.86 362.93 54.77 359.46 54.77 354.57 62.09 347 63.24 340.51 62.09 336.12 58.86 336.12 35.42 339.19 31.63"/><path d="M361,65V58.69c0-3-1.74-.55-2.74.81h0C355.36,62.63,351.31,65,347,65h-1.67c-7,0-11.57-3.45-11.57-11.06V38.77c0-8.81,5.12-13.54,14.58-13.54a26.19,26.19,0,0,1,12.66,3V25.68l7.66-.12V65.22Zm0-31.81c-1.6-3.59-6.9-6.17-12.17-6.17-5.95,0-7.75,5.23-7.79,11.22V54c-.07,5.34.72,8.67,5.25,8.67h0c4.7,0,8.94-1.83,10.91-5.46a32,32,0,0,0,1.67-3.1l.94-2.31a16.17,16.17,0,0,0,1.19-6V33.16Z"/></g></g></svg>