<svg xmlns="http://www.w3.org/2000/svg" viewBox="0 0 88.52 113.69"><defs><style>.cls-1,.cls-2{fill:#ec6d51;}.cls-2{stroke:#ec6d51;stroke-miterlimit:10;}</style></defs><g id="レイヤー_2" data-name="レイヤー 2"><g id="レイヤー_1-2" data-name="レイヤー 1"><path class="cls-1" d="M28.16,8.55c7.22,0,14,1.68,21.07,3.46s14.57,3.63,22.52,3.63a47.38,47.38,0,0,0,12.77-1.7,1.35,1.35,0,0,1,1,.11v86.6a1,1,0,0,1-.2.09A41.56,41.56,0,0,1,71.75,103c-7.21,0-13.94-1.68-21.07-3.46s-14.57-3.64-22.52-3.64a47.5,47.5,0,0,0-12.77,1.71,1.14,1.14,0,0,1-.37,0,1.22,1.22,0,0,1-.62-.16V10.87a.85.85,0,0,1,.19-.09A41.65,41.65,0,0,1,28.16,8.55m0-3A44.52,44.52,0,0,0,13.63,7.94a3,3,0,0,0-2.23,2.69V97.71c0,1.66,1.7,2.92,3.62,2.92a4.29,4.29,0,0,0,1.17-.16,44.87,44.87,0,0,1,12-1.6c15.17,0,28.42,7.1,43.59,7.1a44.52,44.52,0,0,0,14.53-2.39,3,3,0,0,0,2.24-2.69V13.81c0-1.66-1.7-2.92-3.63-2.92a4.82,4.82,0,0,0-1.17.15,44.36,44.36,0,0,1-12,1.6c-15.16,0-28.42-7.09-43.59-7.09Z"/><path class="cls-2" d="M17.66,100.61c0,.45,1.65.82,3.69.82s3.69-.37,3.69-.82v11.76c0,.45-1.65.82-3.69.82s-3.69-.37-3.69-.82Z"/><ellipse class="cls-2" cx="21.35" cy="12.84" rx="19.95" ry="6.42"/><path class="cls-2" d="M1.41,11.84c0,3.55,8.86,6.49,19.88,6.56s20-2.73,20-6.28l-.91,91.36c0,3.55-9,6.36-20,6.28S.46,106.74.5,103.19Z"/><ellipse class="cls-2" cx="20.9" cy="1.22" rx="3.69" ry="0.72"/><path class="cls-2" d="M17.21,1.22c0,.41,1.65.73,3.69.73s3.69-.32,3.69-.73V11.53c0,.4-1.65.73-3.69.73s-3.69-.33-3.69-.73Z"/><path class="cls-2" d="M60.48,25.67a8.66,8.66,0,0,0,4.76-.78,6.8,6.8,0,0,1,1.7.45c.65.38.34.72-.86,1-1.51.33-5.22-.2-5.71.15s-.59,3.51-.59,4.4a54.12,54.12,0,0,1,5.94-.14c.08-.68-.75-1-1.8-1.47-.3-.12-.28-.32.12-.39,2.47.51,3.71,1,3.63,2,3.2.15,5.57.2,7,.92a3.22,3.22,0,0,1,2,3.08,7.34,7.34,0,0,1-2.39,4.76,13.23,13.23,0,0,1-8,4c-.57,0-.61-.19-.13-.42a13.87,13.87,0,0,0,6.36-3.25,6.62,6.62,0,0,0,2.34-4.45,3,3,0,0,0-1.57-2.82c-1.21-.71-3.17-.91-5.78-1.07A29.42,29.42,0,0,1,65.24,35a13.93,13.93,0,0,1-3,3c.32.41.68.85,1.07,1.33s.27.73-.12.91-1,0-1.42-.69c-.24-.32-.43-.61-.59-.85a10.64,10.64,0,0,1-3,1.38,4.89,4.89,0,0,1-3-.18,3.93,3.93,0,0,1-2.55-3.58c-.15-1.84.77-3.27,2.78-4.3A13.1,13.1,0,0,1,58.73,31a46.56,46.56,0,0,1,.35-4.65c-1.09-.16-2.15-.39-3.14-.61a2.86,2.86,0,0,1-1.62-.91,5.62,5.62,0,0,1-1.16-2c.08-.32.23-.31.47,0a3.63,3.63,0,0,0,2.31,2,18,18,0,0,0,3.26.73c.23-1.31.36-2.58.46-3.69.06-.59-.43-1.14-1.51-1.65-.31-.09-.23-.3,0-.31A6.23,6.23,0,0,1,61,21.13c.95.64,1.1,1.18.48,1.66A9.74,9.74,0,0,0,60.48,25.67ZM55.94,33a4.28,4.28,0,0,0-2,3.72c0,1.38.48,2.25,1.39,2.6a3.94,3.94,0,0,0,2.67,0A8.84,8.84,0,0,0,60.6,38a12.72,12.72,0,0,1-1.87-6.16A8.21,8.21,0,0,0,55.94,33Zm3.84-1.28a11.33,11.33,0,0,0,1.88,5.61A14,14,0,0,0,64,34.53a16.08,16.08,0,0,0,1.56-3.1A45.81,45.81,0,0,0,59.78,31.68Z"/><path class="cls-2" d="M56.06,50.36a2.2,2.2,0,0,0-.58,1c-1.55,3.45-2.32,6.23-2.32,8.36a5.65,5.65,0,0,0,.23,2.14c.16.25.31.27.47,0a42.8,42.8,0,0,1,2.66-4.54c.39,0,.5.18.35.41A21.83,21.83,0,0,0,55,61.91a6.42,6.42,0,0,0-.35,1.86,22.4,22.4,0,0,0,.11,2.3c.08.71-.19,1-.81.78-.38-.12-.69-.52-.92-1.21A19.18,19.18,0,0,1,52.24,59a26.93,26.93,0,0,1,1.62-8.37A4.84,4.84,0,0,0,54.09,49a2.55,2.55,0,0,0-1.39-2c-.39-.26-.35-.39,0-.31a4,4,0,0,1,1.74.95c.23.21.77.83,1.62,1.85C56.37,49.91,56.37,50.18,56.06,50.36ZM70.91,65.63a3.68,3.68,0,0,1-1.76,2.49,5.41,5.41,0,0,1-3.31.62A5.73,5.73,0,0,1,62,67.13a2.7,2.7,0,0,1-.83-1.84c0-.48.32-.87.94-1.13A8.63,8.63,0,0,1,65.84,64c1.37.13,2.61.25,3.69.4,0-3.85-.09-6.81-.25-8.86A19.92,19.92,0,0,1,62,55.36a3.51,3.51,0,0,1-1.77-.92A6.3,6.3,0,0,1,58.61,52c-.08-.35,0-.4.35-.11a5,5,0,0,0,3.17,2.52,19.77,19.77,0,0,0,7,.15c-.08-1.72-.17-2.89-.24-3.5s-.91-1.16-2.34-1.29c-.71-.07-.76-.22-.12-.42a4.92,4.92,0,0,1,2-.14,7.2,7.2,0,0,1,2.37.6q.51.26-.12.84c-.17.15-.25.5-.25,1.05,0,.76,0,1.61.12,2.57a13.51,13.51,0,0,0,4.25-1.4,1.75,1.75,0,0,1,1.32-.41,4.44,4.44,0,0,1,.94.17c.27.17.13.4-.4.67a21.5,21.5,0,0,1-6,2q.38,4.81.38,9.15a21.9,21.9,0,0,0,5.6.32c.44,0,.71.07.8.31a1.06,1.06,0,0,1,.14.87.89.89,0,0,1-1.08.62C74,66.33,72.17,65.84,70.91,65.63Zm-5.31-.94c-1.61-.16-2.68-.13-3.23.24a.73.73,0,0,0-.35.65,1.4,1.4,0,0,0,.35,1A4.82,4.82,0,0,0,65.48,68a3.68,3.68,0,0,0,2.68-.47,3.19,3.19,0,0,0,1.24-2.09A21.27,21.27,0,0,0,65.6,64.69Z"/><path class="cls-2" d="M53.05,88.45q-1.15,1.39-1.86,2.22a.53.53,0,0,1-.58.14c-.31-.09-.46-.51-.46-1.27a1.24,1.24,0,0,1,.46-1,38.52,38.52,0,0,0,6.14-6.48V80.41a23.42,23.42,0,0,0-2.78.18,1.22,1.22,0,0,1-.81,0,3.66,3.66,0,0,1-.92-.69A3,3,0,0,1,51,77.7c0-.29.19-.35.35-.1a2.73,2.73,0,0,0,1.62,1.63,13.54,13.54,0,0,0,3.82.46v-4a3.15,3.15,0,0,0-2.2-3.15c-.58-.21-.51-.44,0-.41a5.79,5.79,0,0,1,4,2.21q.69.61,0,.93c-.47.56-.7,2.07-.7,4.55a1.23,1.23,0,0,0,.46-.17,9.47,9.47,0,0,1,.94.77c.25.23.35.4.11.55a10.46,10.46,0,0,0-1.51,1.23V83q5.7-3.83,9.75-3.71c2,.06,3,.67,2.86,2.19-.51,4.59-.76,7.39-.76,8.42,0,2.48.62,3.71,1.89,3.54C74,93.1,76.17,90.72,78,86.56c.36-.57.54-.62.54-.14-1.46,4.66-3.85,7.62-7,8A3.16,3.16,0,0,1,69,93.84c-.66-.54-1-1.75-1-3.61q0-3.41.49-8.77c.09-.9-.37-1.33-1.35-1.37C65,80,61.83,81.4,57.8,84q.11,7.58.23,8.33c.16,1,0,1.67-.58,2a1,1,0,0,1-.81.17c-.31-.09-.47-.42-.47-1Q56.17,92.32,53.05,88.45Zm3.7-3.91c-1.16,1.17-2.31,2.35-3.47,3.57.93,1,1.81,1.91,2.66,2.79.31.37.54.41.7.11A55.27,55.27,0,0,0,56.75,84.54Z"/></g></g></svg>