<svg xmlns="http://www.w3.org/2000/svg" viewBox="0 0 498.33 425.35"><defs><style>.cls-1,.cls-2{fill:#d5aa2f;}.cls-1,.cls-2,.cls-3,.cls-4,.cls-5,.cls-7{stroke:#231815;stroke-miterlimit:10;stroke-width:7px;}.cls-1{opacity:0.85;}.cls-3{fill:#786027;}.cls-4{fill:#f8f3e5;}.cls-5{fill:none;}.cls-6,.cls-7{fill:#231815;}</style></defs><g id="レイヤー_2" data-name="レイヤー 2"><g id="レイヤー_3" data-name="レイヤー 3"><path class="cls-1" d="M246.87,421l-49.63-10.66a124.2,124.2,0,0,0-26-2.76H88.7a108.87,108.87,0,0,0-19,1.67L3.5,421V105.84L70.49,94a99.94,99.94,0,0,1,17.43-1.53h86.34a119.93,119.93,0,0,1,26.5,3l46.11,10.45Z"/><path class="cls-2" d="M494.83,421l-50.3-10.76a125.6,125.6,0,0,0-26.35-2.79H334.51a110,110,0,0,0-19.24,1.69L248.15,421V102.67l67.9-12a101.72,101.72,0,0,1,17.67-1.55h87.52a121.46,121.46,0,0,1,26.86,3l46.73,10.55Z"/><path class="cls-3" d="M247.81,109.37c30.39-34.82,84.76-62,135.73-68.19,68.87-8.35,91.75,26.51,92.73,28.1"/><path class="cls-4" d="M469.32,355.52l-57.18,4a103,103,0,0,0-19.44,3.26L350.53,374.1a280.9,280.9,0,0,0-43.33,15.53l-59,26.79V105.65l56.21-36.37,9.91-3.3,9.92-3.31,43-13.22a183.29,183.29,0,0,1,69.43,0l28.59,9c5.73-1.25,11.08,3.45,11.08,9.72V345.92Z"/><path class="cls-2" d="M247.16,421.69c28.71-38.41,82.87-72.12,135.17-84.45,60.21-14.2,89.75,13.47,94.28,19.47h0"/><path class="cls-4" d="M243,107.86C290,67.83,354.32,42.44,406,43.4c45.11.84,64.62,21.5,70.1,28.1"/><path class="cls-5" d="M244.54,419.39c42.55-45.93,104.19-79.53,156.21-85.26,45.44-5,69.44,12.15,75.72,18"/><line class="cls-5" x1="476.47" y1="72.03" x2="476.47" y2="352.14"/><polygon class="cls-6" points="129.93 41.24 118.19 2.9 129.93 0 129.93 41.24"/><rect class="cls-7" x="91.91" y="30.13" width="75.38" height="218.11"/><path class="cls-1" d="M246.87,421l-49.63-10.66a124.2,124.2,0,0,0-26-2.76H88.7a108.87,108.87,0,0,0-19,1.67L3.5,421V105.84L70.49,94a99.94,99.94,0,0,1,17.43-1.53h86.34a119.93,119.93,0,0,1,26.5,3l46.11,10.45Z"/><path class="cls-2" d="M494.83,421l-50.3-10.76a125.6,125.6,0,0,0-26.35-2.79H334.51a110,110,0,0,0-19.24,1.69L248.15,421V102.67l67.9-12a101.72,101.72,0,0,1,17.67-1.55h87.52a121.46,121.46,0,0,1,26.86,3l46.73,10.55Z"/><path class="cls-3" d="M247.81,109.37c30.39-34.82,84.76-62,135.73-68.19,68.87-8.35,91.75,26.51,92.73,28.1"/><path class="cls-4" d="M469.32,355.52l-57.18,4a103,103,0,0,0-19.44,3.26L350.53,374.1a280.9,280.9,0,0,0-43.33,15.53l-59,26.79V105.65l56.21-36.37,9.91-3.3,9.92-3.31,43-13.22a183.29,183.29,0,0,1,69.43,0l28.59,9c5.73-1.25,11.08,3.45,11.08,9.72V345.92Z"/><path class="cls-2" d="M247.16,421.69c28.71-38.41,82.87-72.12,135.17-84.45,60.21-14.2,89.75,13.47,94.28,19.47h0"/><path class="cls-4" d="M243,107.86C290,67.83,354.32,42.44,406,43.4c45.11.84,64.62,21.5,70.1,28.1"/><path class="cls-5" d="M244.54,419.39c42.55-45.93,104.19-79.53,156.21-85.26,45.44-5,69.44,12.15,75.72,18"/><line class="cls-5" x1="476.47" y1="72.03" x2="476.47" y2="352.14"/><polygon class="cls-6" points="129.93 41.24 118.19 2.9 129.93 0 129.93 41.24"/><rect class="cls-7" x="91.91" y="30.13" width="75.38" height="218.11"/></g></g></svg>