<svg xmlns="http://www.w3.org/2000/svg" xmlns:xlink="http://www.w3.org/1999/xlink" viewBox="0 0 1920 1080"><defs><style>.cls-1{fill:none;}.cls-2{fill:#231815;}.cls-3{isolation:isolate;}.cls-4{fill:#fbfaf5;}.cls-5{mix-blend-mode:overlay;fill:url(#スティック);}</style><pattern id="スティック" data-name="スティック" width="72" height="72" patternUnits="userSpaceOnUse" viewBox="0 0 72 72"><rect class="cls-1" width="72" height="72"/><polygon class="cls-2" points="69.33 91.48 83.46 63.78 82.55 63.32 68.42 91.01 69.33 91.48"/><polygon class="cls-2" points="71.05 64.53 45.51 82.27 44.93 81.43 70.46 63.69 71.05 64.53"/><polygon class="cls-2" points="72.94 98.86 58.81 71.17 59.73 70.7 73.86 98.39 72.94 98.86"/><polygon class="cls-2" points="70.45 70.58 57.73 98.95 56.79 98.53 69.51 70.16 70.45 70.58"/><polygon class="cls-2" points="3.82 69.16 32.63 80.87 32.24 81.82 3.44 70.11 3.82 69.16"/><polygon class="cls-2" points="14.06 93.57 31.61 67.9 32.46 68.49 14.91 94.15 14.06 93.57"/><polygon class="cls-2" points="64.74 96.6 48.03 70.38 48.9 69.82 65.61 96.04 64.74 96.6"/><polygon class="cls-2" points="22.88 97.14 37.01 69.44 36.09 68.98 21.96 96.67 22.88 97.14"/><polygon class="cls-2" points="-2.67 91.48 11.46 63.78 10.54 63.32 -3.58 91.01 -2.67 91.48"/><polygon class="cls-2" points="39.44 64.46 33.16 94.91 34.17 95.11 40.44 64.66 39.44 64.46"/><polygon class="cls-2" points="44.65 71.7 17.48 86.82 16.98 85.92 44.15 70.8 44.65 71.7"/><polygon class="cls-2" points="9.17 95.5 3.2 64.99 4.21 64.8 10.18 95.31 9.17 95.5"/><polygon class="cls-2" points="12.06 99.46 18.81 69.11 19.82 69.34 13.07 99.69 12.06 99.46"/><polygon class="cls-2" points="0.94 98.86 -13.19 71.17 -12.27 70.7 1.86 98.39 0.94 98.86"/><polygon class="cls-2" points="97.67 19.87 66.94 15.15 67.1 14.13 97.83 18.85 97.67 19.87"/><polygon class="cls-2" points="82.03 26.53 70.54 55.42 69.59 55.04 81.07 26.15 82.03 26.53"/><polygon class="cls-2" points="67.03 46.17 97.7 51.3 97.53 52.31 66.86 47.19 67.03 46.17"/><polygon class="cls-2" points="67.73 60.57 96.24 72.97 95.83 73.91 67.32 61.52 67.73 60.57"/><polygon class="cls-2" points="65.88 10.38 95.79 1.87 96.07 2.86 66.17 11.37 65.88 10.38"/><polygon class="cls-2" points="69.33 19.48 83.46 -8.21 82.55 -8.68 68.42 19.01 69.33 19.48"/><polygon class="cls-2" points="93.15 54.7 65.98 69.82 65.48 68.92 92.65 53.8 93.15 54.7"/><polygon class="cls-2" points="69.77 43.88 77.11 13.67 78.11 13.92 70.77 44.13 69.77 43.88"/><polygon class="cls-2" points="25.67 19.87 -5.06 15.15 -4.9 14.13 25.83 18.85 25.67 19.87"/><polygon class="cls-2" points="74.83 8.59 44.1 3.87 44.26 2.85 74.99 7.57 74.83 8.59"/><polygon class="cls-2" points="71.05 -7.46 45.51 10.27 44.93 9.43 70.46 -8.31 71.05 -7.46"/><polygon class="cls-2" points="30.91 49.07 3.43 34.53 3.91 33.62 31.39 48.16 30.91 49.07"/><polygon class="cls-2" points="75.4 54.12 47.88 39.65 48.36 38.74 75.88 53.2 75.4 54.12"/><polygon class="cls-2" points="72.94 26.86 58.81 -0.83 59.73 -1.3 73.86 26.39 72.94 26.86"/><polygon class="cls-2" points="53.63 21.94 39.34 49.56 38.43 49.08 52.71 21.47 53.63 21.94"/><polygon class="cls-2" points="72.62 10.66 59.9 39.03 58.96 38.61 71.68 10.24 72.62 10.66"/><polygon class="cls-2" points="29.46 44.89 16.74 73.27 15.81 72.84 28.52 44.48 29.46 44.89"/><polygon class="cls-2" points="70.45 -1.42 57.73 26.95 56.79 26.52 69.51 -1.84 70.45 -1.42"/><polygon class="cls-2" points="44.15 36.04 57.24 64.24 56.3 64.67 43.21 36.47 44.15 36.04"/><polygon class="cls-2" points="5.95 57.24 26.43 80.64 25.65 81.32 5.18 57.92 5.95 57.24"/><polygon class="cls-2" points="36.08 47.36 56.37 70.92 55.59 71.59 35.3 48.03 36.08 47.36"/><polygon class="cls-2" points="5.95 63.63 9.89 32.79 10.91 32.92 6.97 63.76 5.95 63.63"/><polygon class="cls-2" points="24.77 18.43 36.15 47.37 35.2 47.74 23.82 18.81 24.77 18.43"/><polygon class="cls-2" points="4.81 23.02 27.71 44.05 27.02 44.81 4.12 23.78 4.81 23.02"/><polygon class="cls-2" points="10.59 40.88 26.42 67.64 25.54 68.16 9.71 41.4 10.59 40.88"/><polygon class="cls-2" points="10.03 26.53 -1.46 55.42 -2.41 55.04 9.07 26.15 10.03 26.53"/><polygon class="cls-2" points="10.5 8.66 27.4 34.76 26.54 35.32 9.64 9.22 10.5 8.66"/><polygon class="cls-2" points="54.22 28.8 83.36 39.63 83 40.6 53.86 29.77 54.22 28.8"/><polygon class="cls-2" points="3.82 -2.84 32.63 8.87 32.24 9.82 3.44 -1.89 3.82 -2.84"/><polygon class="cls-2" points="39.12 58.82 67.63 46.41 68.04 47.36 39.53 59.77 39.12 58.82"/><polygon class="cls-2" points="46.57 18.16 75.38 29.87 74.99 30.82 46.19 19.11 46.57 18.16"/><polygon class="cls-2" points="14.06 21.57 31.61 -4.1 32.46 -3.51 14.91 22.15 14.06 21.57"/><polygon class="cls-2" points="43.18 32.61 73.42 39.83 73.18 40.83 42.94 33.61 43.18 32.61"/><polygon class="cls-2" points="-4.97 46.17 25.7 51.3 25.53 52.31 -5.14 47.19 -4.97 46.17"/><polygon class="cls-2" points="-4.27 60.57 24.24 72.97 23.83 73.91 -4.68 61.52 -4.27 60.57"/><polygon class="cls-2" points="40.41 7.32 66.61 24.06 66.06 24.93 39.86 8.19 40.41 7.32"/><polygon class="cls-2" points="29.23 41.07 58.03 52.78 57.65 53.73 28.85 42.02 29.23 41.07"/><polygon class="cls-2" points="49.43 69.1 70.17 45.94 70.93 46.62 50.2 69.78 49.43 69.1"/><polygon class="cls-2" points="-6.12 10.38 23.79 1.87 24.07 2.86 -5.83 11.37 -6.12 10.38"/><polygon class="cls-2" points="35.63 66.38 65.54 57.87 65.82 58.86 35.92 67.37 35.63 66.38"/><polygon class="cls-2" points="16.38 23.63 46.29 15.12 46.57 16.11 16.67 24.62 16.38 23.63"/><polygon class="cls-2" points="23.02 54.73 49.71 70.67 49.19 71.55 22.49 55.61 23.02 54.73"/><polygon class="cls-2" points="17.08 39.27 47.83 34.73 47.98 35.74 17.23 40.28 17.08 39.27"/><polygon class="cls-2" points="33.23 47.23 40.11 77.56 39.11 77.78 32.22 47.46 33.23 47.23"/><polygon class="cls-2" points="56.57 44.96 53.04 14.07 54.06 13.96 57.6 44.85 56.57 44.96"/><polygon class="cls-2" points="42.16 40.31 25.45 14.09 26.32 13.54 43.03 39.76 42.16 40.31"/><polygon class="cls-2" points="64.74 24.6 48.03 -1.62 48.9 -2.18 65.61 24.04 64.74 24.6"/><polygon class="cls-2" points="22.88 25.14 37.01 -2.56 36.09 -3.02 21.96 24.67 22.88 25.14"/><polygon class="cls-2" points="-2.67 19.48 11.46 -8.21 10.54 -8.68 -3.58 19.01 -2.67 19.48"/><polygon class="cls-2" points="60.87 47.69 75.15 75.31 76.06 74.83 61.78 47.22 60.87 47.69"/><polygon class="cls-2" points="39.44 -7.54 33.16 22.91 34.17 23.11 40.44 -7.34 39.44 -7.54"/><polygon class="cls-2" points="56.74 17.69 27.94 29.4 28.33 30.35 57.13 18.64 56.74 17.69"/><polygon class="cls-2" points="65.42 73.71 68.95 42.82 67.93 42.71 64.39 73.6 65.42 73.71"/><polygon class="cls-2" points="25.21 36.19 2 56.88 1.32 56.11 24.52 35.42 25.21 36.19"/><polygon class="cls-2" points="46.49 48.93 23.29 69.62 22.6 68.85 45.81 48.16 46.49 48.93"/><polygon class="cls-2" points="21.15 54.7 -6.02 69.82 -6.52 68.92 20.65 53.8 21.15 54.7"/><polygon class="cls-2" points="34.23 70.79 6.71 56.33 7.19 55.42 34.71 69.88 34.23 70.79"/><polygon class="cls-2" points="74.13 59.08 46.97 74.21 46.47 73.31 73.63 58.19 74.13 59.08"/><polygon class="cls-2" points="44.65 -0.3 17.48 14.82 16.98 13.92 44.15 -1.2 44.65 -0.3"/><polygon class="cls-2" points="9.17 23.5 3.2 -7.01 4.21 -7.21 10.18 23.31 9.17 23.5"/><polygon class="cls-2" points="44.4 31.66 51.15 1.31 52.15 1.53 45.41 31.88 44.4 31.66"/><polygon class="cls-2" points="12.94 59.12 19.69 28.77 20.69 29 13.94 59.35 12.94 59.12"/><polygon class="cls-2" points="12.06 27.46 18.81 -2.89 19.82 -2.66 13.07 27.68 12.06 27.46"/><polygon class="cls-2" points="37.06 35.71 43.81 5.36 44.82 5.59 38.07 35.94 37.06 35.71"/><polygon class="cls-2" points="67.6 33.69 44.4 54.38 43.71 53.62 66.91 32.92 67.6 33.69"/><polygon class="cls-2" points="26.42 1.57 3.21 22.26 2.53 21.49 25.73 0.8 26.42 1.57"/><polygon class="cls-2" points="-2.23 43.88 5.12 13.67 6.12 13.92 -1.23 44.13 -2.23 43.88"/><polygon class="cls-2" points="2.83 8.59 -27.9 3.87 -27.74 2.85 2.99 7.57 2.83 8.59"/><polygon class="cls-2" points="3.4 54.12 -24.12 39.65 -23.64 38.74 3.88 53.2 3.4 54.12"/><polygon class="cls-2" points="0.94 26.86 -13.19 -0.83 -12.27 -1.3 1.86 26.39 0.94 26.86"/><polygon class="cls-2" points="0.62 10.66 -12.1 39.03 -13.04 38.61 -0.32 10.24 0.62 10.66"/><polygon class="cls-2" points="-17.79 28.8 11.36 39.63 11 40.6 -18.14 29.77 -17.79 28.8"/><polygon class="cls-2" points="-25.43 18.16 3.38 29.87 2.99 30.82 -25.81 19.11 -25.43 18.16"/><polygon class="cls-2" points="-28.82 32.61 1.42 39.83 1.18 40.83 -29.06 33.61 -28.82 32.61"/><polygon class="cls-2" points="-11.13 47.69 3.15 75.31 4.06 74.83 -10.22 47.22 -11.13 47.69"/><polygon class="cls-2" points="2.13 59.08 -25.04 74.21 -25.54 73.31 1.63 58.19 2.13 59.08"/><polygon class="cls-2" points="67.73 -11.43 96.24 0.97 95.83 1.91 67.32 -10.48 67.73 -11.43"/><polygon class="cls-2" points="29.46 -27.11 16.74 1.27 15.81 0.84 28.52 -27.52 29.46 -27.11"/><polygon class="cls-2" points="5.95 -14.76 26.43 8.64 25.65 9.32 5.18 -14.08 5.95 -14.76"/><polygon class="cls-2" points="-4.27 -11.43 24.24 0.97 23.83 1.91 -4.68 -10.48 -4.27 -11.43"/><polygon class="cls-2" points="33.23 -24.77 40.11 5.55 39.11 5.78 32.22 -24.54 33.23 -24.77"/><polygon class="cls-2" points="60.87 -24.31 75.15 3.31 76.06 2.83 61.78 -24.78 60.87 -24.31"/><polygon class="cls-2" points="65.42 1.71 68.95 -29.18 67.93 -29.29 64.39 1.6 65.42 1.71"/><polygon class="cls-2" points="74.13 -12.92 46.97 2.21 46.47 1.31 73.63 -13.81 74.13 -12.92"/><polygon class="cls-2" points="-11.13 -24.31 3.15 3.31 4.06 2.83 -10.22 -24.78 -11.13 -24.31"/><polygon class="cls-2" points="2.13 -12.92 -25.04 2.21 -25.54 1.31 1.63 -13.81 2.13 -12.92"/></pattern></defs><g class="cls-3"><g id="レイヤー_2" data-name="レイヤー 2"><g id="レイヤー_1-2" data-name="レイヤー 1"><rect class="cls-4" width="1920" height="1080"/><rect class="cls-5" width="1920" height="1080"/></g></g></g></svg>