<svg xmlns="http://www.w3.org/2000/svg" viewBox="0 0 121 121"><defs><style>.cls-1{fill:none;stroke:#333;stroke-miterlimit:10;}.cls-2{fill:#4d4d4d;}.cls-3{fill:#f7efe3;}.cls-4{fill:#3e1e00;}.cls-5{opacity:0.94;}</style></defs><g id="レイヤー_2" data-name="レイヤー 2"><g id="レイヤー_1-2" data-name="レイヤー 1"><rect class="cls-1" x="0.5" y="0.5" width="120" height="120" rx="5.17"/><path class="cls-2" d="M17.58,91.86a15.65,15.65,0,0,0,2.55-3.28,27.05,27.05,0,0,0,2-3.92c1.17-2.78,2-5.92,3.54-8.29a14.2,14.2,0,0,1,6-5.51,31.15,31.15,0,0,1,4.22-1.4L37,69.15a4,4,0,0,1,1.19-.2,8.53,8.53,0,0,1,3.76,1.14l.7.78a8.35,8.35,0,0,1,.71,3.86A3.85,3.85,0,0,1,43,75.89l-.42,1a31.86,31.86,0,0,1-1.87,4,14.12,14.12,0,0,1-6.13,5.39C32.05,87.63,28.83,88.11,26,89a26.1,26.1,0,0,0-4.12,1.51,15.63,15.63,0,0,0-3.54,2.17Z"/><path class="cls-3" d="M17.09,92.25A16.81,16.81,0,0,0,19.66,89a27.07,27.07,0,0,0,2-3.86c1.22-2.72,2.12-5.8,3.68-8.14a15,15,0,0,1,6-5.49A31.41,31.41,0,0,1,35.55,70l1.07-.33a4.12,4.12,0,0,1,1.17-.23,7.87,7.87,0,0,1,3.63,1l.67.74a8,8,0,0,1,.59,3.72,4.12,4.12,0,0,1-.36,1.14l-.44,1a33.19,33.19,0,0,1-1.93,4,15.07,15.07,0,0,1-6.13,5.39c-2.5,1.29-5.65,1.84-8.49,2.75a27.64,27.64,0,0,0-4.06,1.59A16.09,16.09,0,0,0,17.76,93Z"/><polygon class="cls-4" points="101.39 8.78 108.62 16.93 43.21 75.98 35.81 68.99 101.39 8.78"/><path class="cls-4" d="M101.41,8.28C104,11,106.51,13.79,109,16.6l.31.36-.35.34c-2.62,2.58-5.27,5.12-7.93,7.66s-5.29,5.1-8,7.59c-5.38,5-10.71,10.06-16.11,15L60.67,62.45c-2.72,2.46-5.39,5-8.19,7.36a72,72,0,0,1-8.94,6.54l-.4.25-.28-.26-7.39-7-.31-.29.31-.44a66.33,66.33,0,0,1,7.46-8.57c2.72-2.63,5.55-5.1,8.34-7.64L68,37.34,84.82,22.61c2.79-2.47,5.57-4.82,8.33-7.22Zm0,1L36.15,69.36v-.73l7.39,7h-.68c5.53-4.83,11-9.74,16.43-14.67L75.63,46.14l32.66-29.58,0,.7C105.91,14.64,103.66,12,101.36,9.27Z"/><g class="cls-5"><path class="cls-4" d="M17.33,92.51a53.52,53.52,0,0,1,2.06-5.17l2.22-5c.19-.4.35-.86.51-1.3s.39-.81.56-1.24a4.12,4.12,0,0,1,.64-1.15c.28-.31.63-.54.91-.84a4.91,4.91,0,0,1,.95-.81,2.64,2.64,0,0,1,1.41-.26,5.33,5.33,0,0,1,.93.11,11,11,0,0,1,1.2.42,14.66,14.66,0,0,1,1.52.81c.26.13.64.4,1,.6l.49.33.57.41.19.22.33.61.26.53c.16.34.38.75.48,1a17.08,17.08,0,0,1,.6,1.62,8.92,8.92,0,0,1,.26,1.24,5.69,5.69,0,0,1,0,.93A2.48,2.48,0,0,1,33.91,87a4.6,4.6,0,0,1-.92.84c-.34.23-.6.56-1,.79a4.1,4.1,0,0,1-1.23.48c-.44.12-.86.27-1.3.4s-.93.2-1.35.34l-5.24,1.55c-1.75.51-3.51,1-5.4,1.37Z"/></g><line class="cls-4" x1="17.5" y1="97" x2="17.5" y2="111.5"/><path class="cls-4" d="M17.86,97a28.06,28.06,0,0,0,.43,3.63,16.7,16.7,0,0,0,.91,3.62,9.83,9.83,0,0,1,.87,3.63,4,4,0,0,1-.42,1.81,3.71,3.71,0,0,1-1.79,1.81h-.72a3.71,3.71,0,0,1-1.79-1.81,4,4,0,0,1-.42-1.81,9.83,9.83,0,0,1,.87-3.63,16.7,16.7,0,0,0,.91-3.62A28.06,28.06,0,0,0,17.14,97Z"/></g></g></svg>